<?xml version="1.0" encoding="UTF-8" standalone="no"?>
<!-- Created with Inkscape (http://www.inkscape.org/) -->

<svg
   xmlns:dc="http://purl.org/dc/elements/1.1/"
   xmlns:cc="http://creativecommons.org/ns#"
   xmlns:rdf="http://www.w3.org/1999/02/22-rdf-syntax-ns#"
   xmlns:svg="http://www.w3.org/2000/svg"
   xmlns="http://www.w3.org/2000/svg"
   xmlns:sodipodi="http://sodipodi.sourceforge.net/DTD/sodipodi-0.dtd"
   xmlns:inkscape="http://www.inkscape.org/namespaces/inkscape"
   width="31.180239mm"
   height="31.180189mm"
   viewBox="0 0 31.180239 31.180189"
   version="1.1"
   id="svg8"
   inkscape:export-filename="D:\Brandon Slack\Documents\Code\HCI 581\TonyButtonLatest\Raw Assets\OutlookBall.png"
   inkscape:export-xdpi="417.07999"
   inkscape:export-ydpi="417.07999"
   inkscape:version="0.92.1 r15371"
   sodipodi:docname="Outlook.svg">
  <defs
     id="defs2" />
  <sodipodi:namedview
     id="base"
     pagecolor="#ffffff"
     bordercolor="#666666"
     borderopacity="1.0"
     inkscape:pageopacity="0.0"
     inkscape:pageshadow="2"
     inkscape:zoom="0.93194464"
     inkscape:cx="208.15979"
     inkscape:cy="72.68757"
     inkscape:document-units="mm"
     inkscape:current-layer="layer1"
     showgrid="false"
     fit-margin-top="0"
     fit-margin-left="0"
     fit-margin-right="0"
     fit-margin-bottom="0"
     inkscape:window-width="1366"
     inkscape:window-height="705"
     inkscape:window-x="-8"
     inkscape:window-y="-8"
     inkscape:window-maximized="1" />
  <metadata
     id="metadata5">
    <rdf:RDF>
      <cc:Work
         rdf:about="">
        <dc:format>image/svg+xml</dc:format>
        <dc:type
           rdf:resource="http://purl.org/dc/dcmitype/StillImage" />
        <dc:title></dc:title>
      </cc:Work>
    </rdf:RDF>
  </metadata>
  <g
     inkscape:label="Layer 1"
     inkscape:groupmode="layer"
     id="layer1"
     transform="translate(-29.378071,-187.45851)">
    <g
       id="g5201"
       transform="matrix(0.67469475,0,0,0.67457018,-54.020296,129.67682)"
       style="stroke-width:1.4822886">
      <ellipse
         style="opacity:1;fill:#0072c6;fill-opacity:1;fill-rule:nonzero;stroke:#000000;stroke-width:0.39218885;stroke-linecap:butt;stroke-linejoin:miter;stroke-miterlimit:4;stroke-dasharray:none;stroke-opacity:1;paint-order:markers fill stroke"
         id="path5142"
         cx="146.71596"
         cy="108.7682"
         rx="22.910828"
         ry="22.915058" />
    </g>
    <path
       style="fill:#ffffff;fill-opacity:1;stroke:none;stroke-width:1"
       d="M 41.074355,211.17384 35.8447,210.0744 35.837,202.99543 c -0.0074,-6.72237 -0.0051,-7.0798 0.04614,-7.09513 0.02964,-0.009 2.421088,-0.47361 5.314318,-1.03272 2.89323,-0.55911 5.291565,-1.02373 5.329633,-1.03246 l 0.06921,-0.0159 v 9.22939 9.22939 l -0.146122,-0.002 c -0.08036,-0.001 -2.499467,-0.49712 -5.375779,-1.10181 z m 0.67678,-4.94057 c 0.306346,-0.064 0.727836,-0.28242 0.970999,-0.50338 0.489742,-0.44502 0.828678,-1.15152 0.953968,-1.98853 0.05255,-0.35106 0.04502,-1.1689 -0.01406,-1.52755 -0.203605,-1.23587 -0.89249,-2.11273 -1.822354,-2.3196 -0.182051,-0.0405 -0.321772,-0.0484 -0.623053,-0.0354 -0.655049,0.0283 -0.989769,0.17526 -1.449689,0.63637 -0.431872,0.43297 -0.680647,0.91694 -0.830809,1.61626 -0.09262,0.43134 -0.116677,1.29108 -0.04859,1.73669 0.192869,1.2623 0.908501,2.17561 1.867832,2.38377 0.260025,0.0565 0.728925,0.0571 0.995762,0.001 z m -0.681586,-1.18423 c -0.469579,-0.0986 -0.839648,-0.56595 -0.97468,-1.23099 -0.103269,-0.50861 -0.09256,-1.14707 0.02717,-1.61999 0.06847,-0.27047 0.27356,-0.66349 0.430445,-0.82492 0.212214,-0.21835 0.431506,-0.30813 0.752587,-0.30813 0.224122,0 0.286547,0.0123 0.43691,0.0861 0.334505,0.16427 0.574072,0.52191 0.707088,1.05562 0.05816,0.23336 0.06822,0.35877 0.06881,0.8578 7.94e-4,0.67516 -0.05405,0.97309 -0.246563,1.33943 -0.261337,0.49733 -0.723558,0.74542 -1.201765,0.64504 z m 6.203487,0.13545 c 0,-2.04642 0.0068,-2.44687 0.04162,-2.43353 0.02289,0.009 0.282453,0.18141 0.576801,0.3836 0.637915,0.4382 0.656772,0.44867 0.768198,0.42638 0.04788,-0.01 1.292087,-0.82084 2.764882,-1.8028 l 2.677812,-1.78539 v 3.47079 c 0,3.87277 0.01352,3.62975 -0.216491,3.89106 -0.06885,0.0782 -0.188587,0.16703 -0.282245,0.20936 l -0.162662,0.0735 -3.083959,0.009 -3.083957,0.009 z m 0.630634,-3.42631 -0.615254,-0.39308 -0.0079,-1.80354 -0.0079,-1.80354 h 3.170329 c 3.503807,0 3.238655,-0.0158 3.448437,0.20511 0.146183,0.15392 0.211221,0.28745 0.210257,0.43169 l -7.94e-4,0.11688 -2.70408,1.82269 c -2.066467,1.3929 -2.72456,1.82201 -2.790931,1.81979 -0.05535,-0.002 -0.309992,-0.14547 -0.702106,-0.396 z"
       id="path4496"
       inkscape:connector-curvature="0" />
  </g>
</svg>
