<?xml version="1.0" encoding="UTF-8" standalone="no"?>
<!-- Created with Inkscape (http://www.inkscape.org/) -->

<svg
   xmlns:dc="http://purl.org/dc/elements/1.1/"
   xmlns:cc="http://creativecommons.org/ns#"
   xmlns:rdf="http://www.w3.org/1999/02/22-rdf-syntax-ns#"
   xmlns:svg="http://www.w3.org/2000/svg"
   xmlns="http://www.w3.org/2000/svg"
   xmlns:sodipodi="http://sodipodi.sourceforge.net/DTD/sodipodi-0.dtd"
   xmlns:inkscape="http://www.inkscape.org/namespaces/inkscape"
   width="117.84647"
   height="117.84647"
   viewBox="0 0 31.18021 31.180212"
   version="1.1"
   id="svg4597"
   inkscape:version="0.92.1 r15371"
   sodipodi:docname="SlackLogo.svg">
  <defs
     id="defs4591" />
  <sodipodi:namedview
     id="base"
     pagecolor="#ffffff"
     bordercolor="#666666"
     borderopacity="1.0"
     inkscape:pageopacity="0.0"
     inkscape:pageshadow="2"
     inkscape:zoom="0.93194464"
     inkscape:cx="44.183461"
     inkscape:cy="51.094089"
     inkscape:document-units="px"
     inkscape:current-layer="layer1"
     showgrid="false"
     units="px"
     inkscape:window-width="1366"
     inkscape:window-height="705"
     inkscape:window-x="-8"
     inkscape:window-y="-8"
     inkscape:window-maximized="1"
     fit-margin-top="0"
     fit-margin-left="0"
     fit-margin-right="0"
     fit-margin-bottom="0" />
  <metadata
     id="metadata4594">
    <rdf:RDF>
      <cc:Work
         rdf:about="">
        <dc:format>image/svg+xml</dc:format>
        <dc:type
           rdf:resource="http://purl.org/dc/dcmitype/StillImage" />
        <dc:title></dc:title>
      </cc:Work>
    </rdf:RDF>
  </metadata>
  <g
     inkscape:label="Layer 1"
     inkscape:groupmode="layer"
     id="layer1"
     transform="translate(-70.6181,-5.1282169)">
    <circle
       style="opacity:1;fill:#9800e1;fill-opacity:1;fill-rule:nonzero;stroke:#000000;stroke-width:0.26458332;stroke-linecap:butt;stroke-linejoin:miter;stroke-miterlimit:4;stroke-dasharray:none;stroke-opacity:1;paint-order:markers fill stroke"
       id="path5142"
       cx="86.208206"
       cy="20.718323"
       r="15.457814" />
    <g
       id="g5178"
       transform="translate(-517.13416,109.20846)"
       style="stroke:none" />
    <g
       transform="rotate(90,-210.05211,-55.46285)"
       id="g5196"
       style="stroke:none" />
    <g
       id="g5384"
       transform="matrix(0.03789767,-0.01015464,0.01015464,0.03789767,106.24927,3.3199394)"
       style="stroke-width:25.48773956">
      <path
         transform="scale(0.26458333)"
         id="path5331"
         d="M -2826.5176,943.25586 V 591.30469 h -300.4472 c -6.0932,0 -12.1109,0.30565 -18.0411,0.90429 -5.9301,0.59865 -11.7716,1.48996 -17.5097,2.65821 -5.7382,1.16824 -11.3736,2.61346 -16.8906,4.32226 -5.5171,1.70881 -10.9167,3.68202 -16.1836,5.90235 -5.267,2.22032 -10.401,4.68783 -15.3887,7.39062 -4.9878,2.7028 -9.8283,5.64065 -14.5078,8.79688 -4.6795,3.15622 -9.1988,6.53071 -13.541,10.11132 -4.3423,3.58062 -8.5085,7.3678 -12.4844,11.34376 -3.976,3.97595 -7.7612,8.14211 -11.3418,12.48437 -3.5806,4.34226 -6.9551,8.85954 -10.1113,13.53906 -3.1563,4.67952 -6.0941,9.52008 -8.7969,14.50781 -2.7028,4.98774 -5.1723,10.12372 -7.3926,15.39063 -2.2203,5.26691 -4.1916,10.6646 -5.9004,16.18164 -1.7088,5.51704 -3.154,11.1525 -4.3223,16.89063 -1.1682,5.73812 -2.0595,11.57959 -2.6582,17.50976 -0.5986,5.93017 -0.9043,11.9498 -0.9043,18.04297 0,6.09317 0.3057,12.11084 0.9043,18.04102 0.5987,5.93017 1.49,11.77163 2.6582,17.50976 1.1683,5.73813 2.6135,11.37359 4.3223,16.89063 1.7088,5.51704 3.6801,10.91668 5.9004,16.18359 2.2203,5.26691 4.6898,10.40093 7.3926,15.38867 2.7028,4.98774 5.6406,9.82829 8.7969,14.50781 3.1562,4.67953 6.5307,9.19876 10.1113,13.54102 3.5806,4.34226 7.3658,8.50841 11.3418,12.48437 3.9759,3.97597 8.1421,7.76119 12.4844,11.3418 4.3422,3.58062 8.8615,6.95706 13.541,10.11328 4.6795,3.15623 9.52,6.09213 14.5078,8.79492 4.9877,2.7028 10.1217,5.17226 15.3887,7.39258 5.2669,2.22033 10.6665,4.19159 16.1836,5.90039 5.517,1.70881 11.1524,3.15402 16.8906,4.32227 5.7381,1.16825 11.5796,2.05956 17.5097,2.6582 5.9302,0.59865 11.9479,0.9043 18.0411,0.9043 z"
         style="opacity:1;fill:#6ecadc;fill-opacity:1;fill-rule:nonzero;stroke:none;stroke-width:25.48773766;stroke-linecap:butt;stroke-linejoin:miter;stroke-miterlimit:4;stroke-dasharray:none;stroke-opacity:1;paint-order:markers fill stroke"
         inkscape:connector-curvature="0" />
      <path
         transform="scale(0.26458333)"
         id="path5329"
         d="m -1770.6602,591.30469 v 351.95117 h 300.4473 c 6.0932,0 12.1109,-0.30565 18.041,-0.9043 5.9302,-0.59864 11.7717,-1.48995 17.5098,-2.6582 5.7381,-1.16825 11.3736,-2.61346 16.8906,-4.32227 5.5171,-1.7088 10.9167,-3.68006 16.1836,-5.90039 5.2669,-2.22032 10.4009,-4.68978 15.3887,-7.39258 4.9877,-2.70279 9.8283,-5.63869 14.5078,-8.79492 4.6795,-3.15622 9.1987,-6.53266 13.541,-10.11328 4.3423,-3.58061 8.5084,-7.36583 12.4844,-11.3418 3.9759,-3.97596 7.7612,-8.14211 11.3418,-12.48437 3.5806,-4.34226 6.957,-8.86149 10.1133,-13.54102 3.1562,-4.67952 6.0921,-9.52007 8.7949,-14.50781 2.7028,-4.98774 5.1722,-10.12176 7.3926,-15.38867 2.2203,-5.26691 4.1915,-10.66655 5.9004,-16.18359 1.7088,-5.51704 3.154,-11.1525 4.3222,-16.89063 1.1683,-5.73813 2.0596,-11.57959 2.6582,-17.50976 0.5987,-5.93018 0.9063,-11.94785 0.9063,-18.04102 0,-6.09317 -0.3076,-12.1128 -0.9063,-18.04297 -0.5986,-5.93017 -1.4899,-11.77164 -2.6582,-17.50976 -1.1682,-5.73813 -2.6134,-11.37359 -4.3222,-16.89063 -1.7089,-5.51704 -3.6801,-10.91473 -5.9004,-16.18164 -2.2204,-5.26691 -4.6898,-10.40289 -7.3926,-15.39063 -2.7028,-4.98773 -5.6387,-9.82829 -8.7949,-14.50781 -3.1563,-4.67952 -6.5327,-9.1968 -10.1133,-13.53906 -3.5806,-4.34226 -7.3659,-8.50842 -11.3418,-12.48437 -3.976,-3.97596 -8.1421,-7.76314 -12.4844,-11.34376 -4.3423,-3.58061 -8.8615,-6.9551 -13.541,-10.11132 -4.6795,-3.15623 -9.5201,-6.09408 -14.5078,-8.79688 -4.9878,-2.70279 -10.1218,-5.1703 -15.3887,-7.39062 -5.2669,-2.22033 -10.6665,-4.19354 -16.1836,-5.90235 -5.517,-1.7088 -11.1525,-3.15402 -16.8906,-4.32226 -5.7381,-1.16825 -11.5796,-2.05956 -17.5098,-2.65821 -5.9301,-0.59864 -11.9478,-0.90429 -18.041,-0.90429 z"
         style="opacity:1;fill:#6ecadc;fill-opacity:1;fill-rule:nonzero;stroke:none;stroke-width:25.48773766;stroke-linecap:butt;stroke-linejoin:miter;stroke-miterlimit:4;stroke-dasharray:none;stroke-opacity:1;paint-order:markers fill stroke"
         inkscape:connector-curvature="0" />
      <path
         transform="scale(0.26458333)"
         id="path5327"
         d="m -2122.6133,591.30469 h 351.9531 V 290.85742 c 0,-6.09317 -0.3076,-12.1128 -0.9062,-18.04297 -0.5987,-5.93017 -1.488,-11.77164 -2.6563,-17.50976 -1.1682,-5.73813 -2.6154,-11.37163 -4.3242,-16.88867 -1.7088,-5.51704 -3.68,-10.91669 -5.9004,-16.1836 -2.2203,-5.26691 -4.6897,-10.40093 -7.3925,-15.38867 -2.7028,-4.98774 -5.6387,-9.82829 -8.795,-14.50781 -3.1562,-4.67952 -6.5326,-9.19876 -10.1132,-13.54102 -3.5807,-4.34226 -7.3659,-8.50841 -11.3418,-12.48437 -3.976,-3.97596 -8.1422,-7.76118 -12.4844,-11.3418 -4.3423,-3.58062 -8.8596,-6.95705 -13.5391,-10.11328 -4.6795,-3.15623 -9.5201,-6.09213 -14.5078,-8.79492 -4.9877,-2.7028 -10.1237,-5.17226 -15.3906,-7.39258 -5.2669,-2.22033 -10.6666,-4.19158 -16.1836,-5.90039 -5.5171,-1.70881 -11.1506,-3.15597 -16.8887,-4.32422 -5.7381,-1.16825 -11.5796,-2.05761 -17.5098,-2.65625 -5.9301,-0.59865 -11.9497,-0.90625 -18.0429,-0.90625 -6.0932,0 -12.1128,0.3076 -18.043,0.90625 -5.9302,0.59864 -11.7697,1.488 -17.5078,2.65625 -5.7381,1.16825 -11.3736,2.61541 -16.8906,4.32422 -5.5171,1.70881 -10.9167,3.68006 -16.1836,5.90039 -5.2669,2.22032 -10.401,4.68978 -15.3887,7.39258 -4.9877,2.70279 -9.8283,5.63869 -14.5078,8.79492 -4.6795,3.15623 -9.1988,6.53266 -13.541,10.11328 -4.3423,3.58062 -8.5084,7.36584 -12.4844,11.3418 -3.976,3.97596 -7.7612,8.14211 -11.3418,12.48437 -3.5806,4.34226 -6.957,8.8615 -10.1133,13.54102 -3.1562,4.67952 -6.0921,9.52007 -8.7949,14.50781 -2.7028,4.98774 -5.1722,10.12176 -7.3926,15.38867 -2.2203,5.26691 -4.1916,10.66656 -5.9004,16.1836 -1.7088,5.51704 -3.154,11.15054 -4.3222,16.88867 -1.1683,5.73812 -2.0596,11.57959 -2.6582,17.50976 -0.5987,5.93017 -0.9063,11.9498 -0.9063,18.04297 z"
         style="opacity:1;fill:#e9a820;fill-opacity:1;fill-rule:nonzero;stroke:none;stroke-width:25.48773766;stroke-linecap:butt;stroke-linejoin:miter;stroke-miterlimit:4;stroke-dasharray:none;stroke-opacity:1;paint-order:markers fill stroke"
         inkscape:connector-curvature="0" />
      <path
         transform="scale(0.26458333)"
         id="path5323"
         d="m -1770.6602,1647.1621 h -351.9531 v 300.4453 c 0,6.0932 0.3076,12.1128 0.9063,18.043 0.5986,5.9302 1.4899,11.7716 2.6582,17.5098 1.1682,5.7381 2.6134,11.3735 4.3222,16.8906 1.7088,5.517 3.6801,10.9147 5.9004,16.1816 2.2204,5.2669 4.6898,10.4029 7.3926,15.3906 2.7028,4.9878 5.6387,9.8283 8.7949,14.5079 3.1563,4.6795 6.5327,9.1968 10.1133,13.539 3.5806,4.3423 7.3658,8.5084 11.3418,12.4844 3.976,3.976 8.1421,7.7631 12.4844,11.3437 4.3422,3.5807 8.8615,6.9551 13.541,10.1114 4.6795,3.1562 9.5201,6.0941 14.5078,8.7968 4.9877,2.7028 10.1218,5.1704 15.3887,7.3907 5.2669,2.2203 10.6665,4.1935 16.1836,5.9023 5.517,1.7088 11.1525,3.154 16.8906,4.3223 5.7381,1.1682 11.5776,2.0595 17.5078,2.6582 5.9302,0.5986 11.9498,0.9043 18.043,0.9043 6.0932,0 12.1128,-0.3057 18.0429,-0.9043 5.9302,-0.5987 11.7717,-1.49 17.5098,-2.6582 5.7381,-1.1683 11.3716,-2.6135 16.8887,-4.3223 5.517,-1.7088 10.9167,-3.682 16.1836,-5.9023 5.2669,-2.2203 10.4029,-4.6879 15.3906,-7.3907 4.9877,-2.7027 9.8283,-5.6406 14.5078,-8.7968 4.6795,-3.1563 9.1968,-6.5307 13.5391,-10.1114 4.3422,-3.5806 8.5084,-7.3677 12.4844,-11.3437 3.9759,-3.976 7.7611,-8.1421 11.3418,-12.4844 3.5806,-4.3422 6.957,-8.8595 10.1132,-13.539 3.1563,-4.6796 6.0922,-9.5201 8.795,-14.5079 2.7028,-4.9877 5.1722,-10.1237 7.3925,-15.3906 2.2204,-5.2669 4.1916,-10.6646 5.9004,-16.1816 1.7088,-5.5171 3.156,-11.1525 4.3242,-16.8906 1.1683,-5.7382 2.0576,-11.5796 2.6563,-17.5098 0.5986,-5.9302 0.9062,-11.9498 0.9062,-18.043 z"
         style="opacity:1;fill:#e9a820;fill-opacity:1;fill-rule:nonzero;stroke:none;stroke-width:25.48773766;stroke-linecap:butt;stroke-linejoin:miter;stroke-miterlimit:4;stroke-dasharray:none;stroke-opacity:1;paint-order:markers fill stroke"
         inkscape:connector-curvature="0" />
      <path
         transform="scale(0.26458333)"
         id="path5321"
         d="m -1770.6602,1295.209 v 351.9531 h 300.4473 c 6.0932,0 12.1109,-0.3076 18.041,-0.9062 5.9302,-0.5987 11.7717,-1.49 17.5098,-2.6582 5.7381,-1.1683 11.3736,-2.6135 16.8906,-4.3223 5.5171,-1.7088 10.9167,-3.6801 16.1836,-5.9004 5.2669,-2.2203 10.4009,-4.6898 15.3887,-7.3926 4.9877,-2.7028 9.8283,-5.6387 14.5078,-8.7949 4.6795,-3.1562 9.1987,-6.5327 13.541,-10.1133 4.3423,-3.5806 8.5084,-7.3658 12.4844,-11.3418 3.9759,-3.9759 7.7612,-8.1421 11.3418,-12.4844 3.5806,-4.3422 6.957,-8.8614 10.1133,-13.541 3.1562,-4.6795 6.0921,-9.52 8.7949,-14.5078 2.7028,-4.9877 5.1722,-10.1217 7.3926,-15.3887 2.2203,-5.2669 4.1915,-10.6665 5.9004,-16.1835 1.7088,-5.5171 3.154,-11.1525 4.3222,-16.8907 1.1683,-5.7381 2.0596,-11.5796 2.6582,-17.5097 0.5987,-5.9302 0.9063,-11.9479 0.9063,-18.0411 0,-6.0931 -0.3076,-12.1128 -0.9063,-18.0429 -0.5986,-5.9302 -1.4899,-11.7717 -2.6582,-17.5098 -1.1682,-5.7381 -2.6134,-11.3736 -4.3222,-16.8906 -1.7089,-5.5171 -3.6801,-10.9147 -5.9004,-16.1817 -2.2204,-5.2669 -4.6898,-10.4028 -7.3926,-15.3906 -2.7028,-4.9877 -5.6387,-9.8283 -8.7949,-14.5078 -3.1563,-4.6795 -6.5327,-9.1968 -10.1133,-13.5391 -3.5806,-4.3422 -7.3659,-8.5084 -11.3418,-12.4843 -3.976,-3.976 -8.1421,-7.7632 -12.4844,-11.3438 -4.3423,-3.5806 -8.8615,-6.9551 -13.541,-10.1113 -4.6795,-3.1562 -9.5201,-6.0941 -14.5078,-8.7969 -4.9878,-2.7028 -10.1218,-5.1703 -15.3887,-7.3906 -5.2669,-2.2203 -10.6665,-4.1935 -16.1836,-5.9023 -5.517,-1.7089 -11.1525,-3.1541 -16.8906,-4.3223 -5.7381,-1.1683 -11.5796,-2.0596 -17.5098,-2.6582 -5.9301,-0.5987 -11.9478,-0.9043 -18.041,-0.9043 z"
         style="opacity:1;fill:#e01563;fill-opacity:1;fill-rule:nonzero;stroke:none;stroke-width:25.48773766;stroke-linecap:butt;stroke-linejoin:miter;stroke-miterlimit:4;stroke-dasharray:none;stroke-opacity:1;paint-order:markers fill stroke"
         inkscape:connector-curvature="0" />
      <path
         transform="scale(0.26458333)"
         id="path5319"
         d="m -2122.6133,1295.209 v 351.9531 h 351.9531 V 1295.209 Z"
         style="opacity:1;fill:#ce0e0d;fill-opacity:1;fill-rule:nonzero;stroke:none;stroke-width:25.48773766;stroke-linecap:butt;stroke-linejoin:miter;stroke-miterlimit:4;stroke-dasharray:none;stroke-opacity:1;paint-order:markers fill stroke"
         inkscape:connector-curvature="0" />
      <path
         transform="scale(0.26458333)"
         id="path5317"
         d="m -2122.6133,1295.209 h 351.9531 V 943.25586 h -351.9531 z"
         style="opacity:1;fill:#e9a820;fill-opacity:1;fill-rule:nonzero;stroke:none;stroke-width:25.48773766;stroke-linecap:butt;stroke-linejoin:miter;stroke-miterlimit:4;stroke-dasharray:none;stroke-opacity:1;paint-order:markers fill stroke"
         inkscape:connector-curvature="0" />
      <path
         transform="scale(0.26458333)"
         id="path5315"
         d="M -2826.5176,1647.1621 V 1295.209 h -300.4472 c -6.0932,0 -12.1109,0.3056 -18.0411,0.9043 -5.9301,0.5986 -11.7716,1.4899 -17.5097,2.6582 -5.7382,1.1682 -11.3736,2.6134 -16.8906,4.3223 -5.5171,1.7088 -10.9167,3.682 -16.1836,5.9023 -5.267,2.2203 -10.401,4.6878 -15.3887,7.3906 -4.9878,2.7028 -9.8283,5.6407 -14.5078,8.7969 -4.6795,3.1562 -9.1988,6.5307 -13.541,10.1113 -4.3423,3.5806 -8.5085,7.3678 -12.4844,11.3438 -3.976,3.9759 -7.7612,8.1421 -11.3418,12.4843 -3.5806,4.3423 -6.9551,8.8596 -10.1113,13.5391 -3.1563,4.6795 -6.0941,9.5201 -8.7969,14.5078 -2.7028,4.9878 -5.1723,10.1237 -7.3926,15.3906 -2.2203,5.267 -4.1916,10.6646 -5.9004,16.1817 -1.7088,5.517 -3.154,11.1525 -4.3223,16.8906 -1.1682,5.7381 -2.0595,11.5796 -2.6582,17.5098 -0.5986,5.9301 -0.9043,11.9498 -0.9043,18.0429 0,6.0932 0.3057,12.1109 0.9043,18.0411 0.5987,5.9301 1.49,11.7716 2.6582,17.5097 1.1683,5.7382 2.6135,11.3736 4.3223,16.8907 1.7088,5.517 3.6801,10.9166 5.9004,16.1835 2.2203,5.267 4.6898,10.401 7.3926,15.3887 2.7028,4.9878 5.6406,9.8283 8.7969,14.5078 3.1562,4.6796 6.5307,9.1988 10.1113,13.541 3.5806,4.3423 7.3658,8.5085 11.3418,12.4844 3.9759,3.976 8.1421,7.7612 12.4844,11.3418 4.3422,3.5806 8.8615,6.9571 13.541,10.1133 4.6795,3.1562 9.52,6.0921 14.5078,8.7949 4.9877,2.7028 10.1217,5.1723 15.3887,7.3926 5.2669,2.2203 10.6665,4.1916 16.1836,5.9004 5.517,1.7088 11.1524,3.154 16.8906,4.3223 5.7381,1.1682 11.5796,2.0595 17.5097,2.6582 5.9302,0.5986 11.9479,0.9062 18.0411,0.9062 z"
         style="opacity:1;fill:#e01563;fill-opacity:1;fill-rule:nonzero;stroke:none;stroke-width:25.48773766;stroke-linecap:butt;stroke-linejoin:miter;stroke-miterlimit:4;stroke-dasharray:none;stroke-opacity:1;paint-order:markers fill stroke"
         inkscape:connector-curvature="0" />
      <path
         transform="scale(0.26458333)"
         id="path5313"
         d="m -2474.5645,1647.1621 h -351.9531 v 300.4453 c 0,6.0932 0.3076,12.1128 0.9063,18.043 0.5986,5.9302 1.488,11.7716 2.6562,17.5098 1.1683,5.7381 2.6154,11.3735 4.3242,16.8906 1.7088,5.517 3.6801,10.9147 5.9004,16.1816 2.2204,5.2669 4.6898,10.4029 7.3926,15.3906 2.7028,4.9878 5.6387,9.8283 8.7949,14.5079 3.1563,4.6795 6.5327,9.1968 10.1133,13.539 3.5806,4.3423 7.3658,8.5084 11.3418,12.4844 3.976,3.976 8.1421,7.7631 12.4844,11.3437 4.3422,3.5807 8.8595,6.9551 13.539,10.1114 4.6796,3.1562 9.5221,6.0941 14.5098,8.7968 4.9877,2.7028 10.1218,5.1704 15.3887,7.3907 5.2669,2.2203 10.6665,4.1935 16.1836,5.9023 5.517,1.7088 11.1505,3.154 16.8886,4.3223 5.7382,1.1682 11.5796,2.0595 17.5098,2.6582 5.9302,0.5986 11.9498,0.9043 18.043,0.9043 6.0932,0 12.1128,-0.3057 18.043,-0.9043 5.9301,-0.5987 11.7716,-1.49 17.5097,-2.6582 5.7381,-1.1683 11.3716,-2.6135 16.8887,-4.3223 5.517,-1.7088 10.9167,-3.682 16.1836,-5.9023 5.2669,-2.2203 10.4009,-4.6879 15.3887,-7.3907 4.9877,-2.7027 9.8302,-5.6406 14.5097,-8.7968 4.6795,-3.1563 9.1968,-6.5307 13.5391,-10.1114 4.3422,-3.5806 8.5084,-7.3677 12.4844,-11.3437 3.9759,-3.976 7.7611,-8.1421 11.3418,-12.4844 3.5806,-4.3422 6.957,-8.8595 10.1132,-13.539 3.1563,-4.6796 6.0922,-9.5201 8.795,-14.5079 2.7028,-4.9877 5.1722,-10.1237 7.3925,-15.3906 2.2204,-5.2669 4.1916,-10.6646 5.9004,-16.1816 1.7088,-5.5171 3.156,-11.1525 4.3242,-16.8906 1.1683,-5.7382 2.0577,-11.5796 2.6563,-17.5098 0.5986,-5.9302 0.9062,-11.9498 0.9062,-18.043 z"
         style="opacity:1;fill:#3eb991;fill-opacity:1;fill-rule:nonzero;stroke:none;stroke-width:25.48773766;stroke-linecap:butt;stroke-linejoin:miter;stroke-miterlimit:4;stroke-dasharray:none;stroke-opacity:1;paint-order:markers fill stroke"
         inkscape:connector-curvature="0" />
      <path
         transform="scale(0.26458333)"
         id="path5311"
         d="m -2474.5645,1295.209 h -351.9531 v 351.9531 h 351.9531 z"
         style="opacity:1;fill:#311039;fill-opacity:1;fill-rule:nonzero;stroke:none;stroke-width:25.48773766;stroke-linecap:butt;stroke-linejoin:miter;stroke-miterlimit:4;stroke-dasharray:none;stroke-opacity:1;paint-order:markers fill stroke"
         inkscape:connector-curvature="0" />
      <path
         transform="scale(0.26458333)"
         id="path5309"
         d="m -2474.5645,1295.209 v 351.9531 h 351.9512 V 1295.209 Z"
         style="opacity:1;fill:#e01563;fill-opacity:1;fill-rule:nonzero;stroke:none;stroke-width:25.48773766;stroke-linecap:butt;stroke-linejoin:miter;stroke-miterlimit:4;stroke-dasharray:none;stroke-opacity:1;paint-order:markers fill stroke"
         inkscape:connector-curvature="0" />
      <path
         transform="scale(0.26458333)"
         id="path5307"
         d="m -2474.5645,943.25586 h -351.9531 V 1295.209 h 351.9531 z"
         style="opacity:1;fill:#3eb991;fill-opacity:1;fill-rule:nonzero;stroke:none;stroke-width:25.48773766;stroke-linecap:butt;stroke-linejoin:miter;stroke-miterlimit:4;stroke-dasharray:none;stroke-opacity:1;paint-order:markers fill stroke"
         inkscape:connector-curvature="0" />
      <path
         transform="scale(0.26458333)"
         id="path5303"
         d="m -2474.5645,591.30469 h -351.9531 v 351.95117 h 351.9531 z"
         style="opacity:1;fill:#18947e;fill-opacity:1;fill-rule:nonzero;stroke:none;stroke-width:25.48773766;stroke-linecap:butt;stroke-linejoin:miter;stroke-miterlimit:4;stroke-dasharray:none;stroke-opacity:1;paint-order:markers fill stroke"
         inkscape:connector-curvature="0" />
      <path
         transform="scale(0.26458333)"
         id="path5301"
         d="m -2474.5645,591.30469 v 351.95117 h 351.9512 V 591.30469 Z"
         style="opacity:1;fill:#6ecadc;fill-opacity:1;fill-rule:nonzero;stroke:none;stroke-width:25.48773766;stroke-linecap:butt;stroke-linejoin:miter;stroke-miterlimit:4;stroke-dasharray:none;stroke-opacity:1;paint-order:markers fill stroke"
         inkscape:connector-curvature="0" />
      <path
         transform="scale(0.26458333)"
         id="path5299"
         d="m -2650.541,114.88086 c -6.0932,0 -12.1128,0.3076 -18.043,0.90625 -5.9302,0.59864 -11.7716,1.488 -17.5098,2.65625 -5.7381,1.16825 -11.3716,2.61541 -16.8886,4.32422 -5.5171,1.70881 -10.9167,3.68006 -16.1836,5.90039 -5.2669,2.22032 -10.401,4.68978 -15.3887,7.39258 -4.9877,2.70279 -9.8302,5.63869 -14.5098,8.79492 -4.6795,3.15623 -9.1968,6.53266 -13.539,10.11328 -4.3423,3.58062 -8.5084,7.36584 -12.4844,11.3418 -3.976,3.97596 -7.7612,8.14211 -11.3418,12.48437 -3.5806,4.34226 -6.957,8.8615 -10.1133,13.54102 -3.1562,4.67952 -6.0921,9.52007 -8.7949,14.50781 -2.7028,4.98774 -5.1722,10.12176 -7.3926,15.38867 -2.2203,5.26691 -4.1916,10.66656 -5.9004,16.1836 -1.7088,5.51704 -3.1559,11.15054 -4.3242,16.88867 -1.1682,5.73812 -2.0576,11.57959 -2.6562,17.50976 -0.5987,5.93017 -0.9063,11.9498 -0.9063,18.04297 v 300.44727 h 351.9531 V 290.85742 c 0,-6.09317 -0.3076,-12.1128 -0.9062,-18.04297 -0.5986,-5.93017 -1.488,-11.77164 -2.6563,-17.50976 -1.1682,-5.73813 -2.6154,-11.37163 -4.3242,-16.88867 -1.7088,-5.51704 -3.68,-10.91669 -5.9004,-16.1836 -2.2203,-5.26691 -4.6897,-10.40093 -7.3925,-15.38867 -2.7028,-4.98774 -5.6387,-9.82829 -8.795,-14.50781 -3.1562,-4.67952 -6.5326,-9.19876 -10.1132,-13.54102 -3.5807,-4.34226 -7.3659,-8.50841 -11.3418,-12.48437 -3.976,-3.97596 -8.1422,-7.76118 -12.4844,-11.3418 -4.3423,-3.58062 -8.8596,-6.95705 -13.5391,-10.11328 -4.6795,-3.15623 -9.522,-6.09213 -14.5097,-8.79492 -4.9878,-2.7028 -10.1218,-5.17226 -15.3887,-7.39258 -5.2669,-2.22033 -10.6666,-4.19158 -16.1836,-5.90039 -5.5171,-1.70881 -11.1506,-3.15597 -16.8887,-4.32422 -5.7381,-1.16825 -11.5796,-2.05761 -17.5097,-2.65625 -5.9302,-0.59865 -11.9498,-0.90625 -18.043,-0.90625 z"
         style="opacity:1;fill:#3eb991;fill-opacity:1;fill-rule:nonzero;stroke:none;stroke-width:25.48773766;stroke-linecap:butt;stroke-linejoin:miter;stroke-miterlimit:4;stroke-dasharray:none;stroke-opacity:1;paint-order:markers fill stroke"
         inkscape:connector-curvature="0" />
      <path
         inkscape:connector-curvature="0"
         style="opacity:1;fill:#66861d;fill-opacity:1;fill-rule:nonzero;stroke:none;stroke-width:6.74363089;stroke-linecap:butt;stroke-linejoin:miter;stroke-miterlimit:4;stroke-dasharray:none;stroke-opacity:1;paint-order:markers fill stroke"
         d="m -561.60809,249.56978 h 93.12092 v -93.12042 h -93.12092 z"
         id="path5333" />
    </g>
  </g>
</svg>
